<?xml version="1.0" encoding="UTF-8"?>
<!-- Created with Inkscape (http://www.inkscape.org/) -->
<svg width="640mm" height="210mm" version="1.1" viewBox="0 0 640 210" xmlns="http://www.w3.org/2000/svg">
 <path d="m60.134 147.5c0.474 0 0.912 0.296 1.094 0.74l28.782 57.666c0.037 0.11 0.073 0.221 0.037 0.37-0.037 0.332-0.328 0.554-0.657 0.517h-10.287c-0.474-0.037-0.912-0.296-1.167-0.74l-8.537-17.273h-29l-8.647 17.274c-0.256 0.443-0.694 0.702-1.204 0.74h-9.923c-0.11 0-0.255 0-0.365-0.075-0.328-0.148-0.437-0.555-0.255-0.85l29.549-57.63c0.255-0.443 0.693-0.74 1.203-0.74zm-5.364 11.088-10.039 20.73h20.041zm22.894-82.775c0.398-0.258 0.833-0.11 0.833 0.444v9.57c0 0.518-0.29 0.96-0.688 1.257l-31.02 18.069 32.25 19.067c0.471 0.258 0.725 0.739 0.688 1.22v9.496c0 0.147-0.036 0.258-0.108 0.37-0.181 0.258-0.543 0.295-0.797 0.11l-40.358-24.425v23.427l-7e-3 0.101c-0.05 0.397-0.389 0.712-0.79 0.712h-8.252c-0.435 0-0.797-0.37-0.797-0.813v-57.57c0-0.443 0.362-0.813 0.797-0.813h8.252l0.1 7e-3c0.388 0.056 0.697 0.434 0.697 0.843v22.356zm0.188-74.109c0.431 0 0.791 0.37 0.791 0.814v57.67c0 0.443-0.36 0.814-0.791 0.814h-8.205c-0.398 0-0.735-0.316-0.785-0.714l-6e-3 -0.1v-57.671c0-0.444 0.36-0.814 0.791-0.814h8.205zm-39.848 0c0.439 0 0.804 0.37 0.804 0.815v24.297h24.928c0.438 0 0.804 0.37 0.767 0.852v7.481l-6e-3 0.101c-0.05 0.398-0.393 0.714-0.798 0.714h-24.927v24.223c0 0.444-0.366 0.815-0.804 0.815h-8.334c-0.438 0-0.804-0.37-0.804-0.815v-24.297h-24.927c-0.475 0.037-0.841-0.37-0.841-0.815v-7.445c0-0.444 0.402-0.814 0.84-0.814h24.965v-24.297c0-0.445 0.365-0.815 0.804-0.815z" fill="#d72305"/>
 <g transform="translate(12.7 2.1167)" fill="#d72305" stroke-width=".26458" aria-label="Bücher  Beispiel Mit Angular und NestJS">
  <path d="m99.999 86.072v-36.364h13.643q4.1672 0 6.6725 1.1162 2.5301 1.0914 3.9439 3.3982 1.4387 2.282 1.4387 4.7873 0 2.3316-1.265 4.3904t-3.8199 3.3238q3.299 0.96738 5.0602 3.299 1.7859 2.3316 1.7859 5.5066 0 2.5549-1.0914 4.7625-1.0666 2.1828-2.6541 3.3734t-3.9936 1.8107q-2.3812 0.59531-5.8539 0.59531zm4.8121-21.084h7.8631q3.1998 0 4.5889-0.42168 1.8356-0.5457 2.7533-1.8107 0.94258-1.265 0.94258-3.175 0-1.8107-0.86817-3.175-0.86816-1.3891-2.4805-1.8852-1.6123-0.5209-5.5314-0.5209h-7.2678zm0 16.793h9.0537q2.3316 0 3.2742-0.17363 1.6619-0.29766 2.7781-0.99219 1.1162-0.69453 1.8356-2.0092 0.71933-1.3395 0.71933-3.0758 0-2.034-1.0418-3.5223-1.0418-1.5131-2.9022-2.1084-1.8356-0.62012-5.3082-0.62012h-8.4088z"/>
  <path d="m150.77 86.072v-3.8695q-3.0758 4.4648-8.3592 4.4648-2.3316 0-4.3656-0.89297-2.0092-0.89297-3.0014-2.2324-0.96738-1.3643-1.3643-3.3238-0.27285-1.3146-0.27285-4.1672v-16.321h4.4648v14.61q0 3.4975 0.27285 4.7129 0.42168 1.7611 1.7859 2.7781 1.3643 0.99219 3.3734 0.99219t3.7703-1.017q1.7611-1.0418 2.4805-2.8029 0.74414-1.7859 0.74414-5.1594v-14.114h4.4648v26.343zm-13.643-31.502v-5.085h4.6633v5.085zm9.2522 0v-5.085h4.6633v5.085z"/>
  <path d="m178.95 76.423 4.3904 0.57051q-0.71934 4.5393-3.6959 7.1189-2.9518 2.5549-7.2678 2.5549-5.4074 0-8.7064-3.5223-3.2742-3.5471-3.2742-10.145 0-4.2664 1.4139-7.4662 1.4139-3.1998 4.2912-4.7873 2.9022-1.6123 6.3004-1.6123 4.2912 0 7.0197 2.1828 2.7285 2.158 3.4975 6.1516l-4.3408 0.66973q-0.62012-2.6541-2.2076-3.9936-1.5627-1.3395-3.7951-1.3395-3.3734 0-5.4818 2.4309-2.1084 2.4061-2.1084 7.6398 0 5.3082 2.034 7.7143 2.034 2.4061 5.3082 2.4061 2.6293 0 4.3904-1.6123 1.7611-1.6123 2.2324-4.9609z"/>
  <path d="m187.16 86.072v-36.364h4.4648v13.047q3.1254-3.6215 7.8879-3.6215 2.927 0 5.085 1.1658 2.158 1.141 3.0758 3.175 0.94258 2.034 0.94258 5.9035v16.694h-4.4648v-16.694q0-3.3486-1.4635-4.8617-1.4387-1.5379-4.0928-1.5379-1.9844 0-3.7455 1.0418-1.7363 1.017-2.4805 2.7781-0.74414 1.7611-0.74414 4.8617v14.412z"/>
  <path d="m233.45 77.589 4.6137 0.57051q-1.0914 4.0432-4.0432 6.2756t-7.5406 2.2324q-5.7795 0-9.1777-3.5471-3.3734-3.5719-3.3734-9.9963 0-6.6477 3.423-10.319t8.8801-3.6711q5.2834 0 8.632 3.5967 3.3486 3.5967 3.3486 10.12 0 0.39688-0.0248 1.1906h-19.645q0.24805 4.3408 2.4557 6.6477 2.2076 2.3068 5.5066 2.3068 2.4557 0 4.192-1.2898 1.7363-1.2898 2.7533-4.1176zm-14.66-7.2182h14.709q-0.29766-3.3238-1.6867-4.9857-2.1332-2.5797-5.5314-2.5797-3.0758 0-5.1842 2.0588-2.0836 2.0588-2.3068 5.5066z"/>
  <path d="m243.62 86.072v-26.343h4.0184v3.9936q1.5379-2.8029 2.8277-3.6959 1.3146-0.89297 2.8773-0.89297 2.2572 0 4.5889 1.4387l-1.5379 4.1424q-1.6371-0.96738-3.2742-0.96738-1.4635 0-2.6293 0.89297-1.1658 0.86816-1.6619 2.4309-0.74414 2.3812-0.74414 5.209v13.791z"/>
  <path d="m289.18 86.072v-36.364h13.643q4.1672 0 6.6725 1.1162 2.5301 1.0914 3.944 3.3982 1.4387 2.282 1.4387 4.7873 0 2.3316-1.265 4.3904t-3.8199 3.3238q3.299 0.96738 5.0602 3.299 1.7859 2.3316 1.7859 5.5066 0 2.5549-1.0914 4.7625-1.0666 2.1828-2.6541 3.3734t-3.9936 1.8107q-2.3812 0.59531-5.8539 0.59531zm4.8121-21.084h7.8631q3.1998 0 4.5889-0.42168 1.8355-0.5457 2.7533-1.8107 0.94258-1.265 0.94258-3.175 0-1.8107-0.86817-3.175-0.86816-1.3891-2.4805-1.8852-1.6123-0.5209-5.5314-0.5209h-7.2678zm0 16.793h9.0537q2.3316 0 3.2742-0.17363 1.6619-0.29766 2.7781-0.99219 1.1162-0.69453 1.8356-2.0092 0.71933-1.3395 0.71933-3.0758 0-2.034-1.0418-3.5223-1.0418-1.5131-2.9021-2.1084-1.8356-0.62012-5.3082-0.62012h-8.4088z"/>
  <path d="m340.73 77.589 4.6137 0.57051q-1.0914 4.0432-4.0432 6.2756-2.9518 2.2324-7.5406 2.2324-5.7795 0-9.1777-3.5471-3.3734-3.5719-3.3734-9.9963 0-6.6477 3.423-10.319 3.423-3.6711 8.8801-3.6711 5.2834 0 8.632 3.5967 3.3486 3.5967 3.3486 10.12 0 0.39688-0.0248 1.1906h-19.645q0.24805 4.3408 2.4557 6.6477 2.2076 2.3068 5.5066 2.3068 2.4557 0 4.192-1.2898 1.7363-1.2898 2.7533-4.1176zm-14.66-7.2182h14.709q-0.29766-3.3238-1.6867-4.9857-2.1332-2.5797-5.5314-2.5797-3.0758 0-5.1842 2.0588-2.0836 2.0588-2.3068 5.5066z"/>
  <path d="m350.97 54.843v-5.1346h4.4648v5.1346zm0 31.229v-26.343h4.4648v26.343z"/>
  <path d="m360.45 78.209 4.4152-0.69453q0.37207 2.6541 2.0588 4.068 1.7115 1.4139 4.7625 1.4139 3.0758 0 4.5641-1.2402 1.4883-1.265 1.4883-2.9518 0-1.5131-1.3146-2.3812-0.91778-0.59531-4.5641-1.5131-4.9113-1.2402-6.8213-2.1332-1.8852-0.91777-2.8773-2.5053-0.96738-1.6123-0.96738-3.5471 0-1.7611 0.79375-3.2494 0.81855-1.5131 2.2076-2.5053 1.0418-0.76894 2.8277-1.2898 1.8107-0.5457 3.8695-0.5457 3.1006 0 5.4322 0.89297 2.3564 0.89297 3.4726 2.4309 1.1162 1.5131 1.5379 4.068l-4.3656 0.59531q-0.29766-2.034-1.7363-3.175-1.4139-1.141-4.0184-1.141-3.0758 0-4.3904 1.017t-1.3146 2.3812q0 0.86816 0.54571 1.5627 0.5457 0.71934 1.7115 1.1906 0.66973 0.24805 3.9439 1.141 4.7377 1.265 6.598 2.0836 1.8852 0.79375 2.9518 2.3316 1.0666 1.5379 1.0666 3.8199 0 2.2324-1.3146 4.2168-1.2898 1.9596-3.7455 3.051-2.4557 1.0666-5.5562 1.0666-5.1346 0-7.8383-2.1332-2.6789-2.1332-3.423-6.3252z"/>
  <path d="m387.63 96.168v-36.438h4.068v3.423q1.4387-2.0092 3.2494-3.0014 1.8107-1.017 4.3904-1.017 3.3734 0 5.9531 1.7363 2.5797 1.7363 3.8943 4.9113 1.3146 3.1502 1.3146 6.9205 0 4.0432-1.4635 7.2926-1.4387 3.2246-4.2168 4.9609-2.7533 1.7115-5.8043 1.7115-2.2324 0-4.0184-0.94258-1.7611-0.94258-2.9022-2.3812v12.824zm4.0432-23.118q0 5.085 2.0588 7.5158t4.9857 2.4309q2.9766 0 5.085-2.5053 2.1332-2.5301 2.1332-7.8135 0-5.0354-2.0836-7.5406-2.0588-2.5053-4.9361-2.5053-2.8525 0-5.0602 2.6789-2.1828 2.6541-2.1828 7.7391z"/>
  <path d="m415.91 54.843v-5.1346h4.4648v5.1346zm0 31.229v-26.343h4.4648v26.343z"/>
  <path d="m445.21 77.589 4.6137 0.57051q-1.0914 4.0432-4.0432 6.2756t-7.5406 2.2324q-5.7795 0-9.1777-3.5471-3.3734-3.5719-3.3734-9.9963 0-6.6477 3.423-10.319t8.8801-3.6711q5.2834 0 8.632 3.5967 3.3486 3.5967 3.3486 10.12 0 0.39688-0.0248 1.1906h-19.645q0.24805 4.3408 2.4557 6.6477t5.5066 2.3068q2.4557 0 4.192-1.2898 1.7363-1.2898 2.7533-4.1176zm-14.66-7.2182h14.709q-0.29765-3.3238-1.6867-4.9857-2.1332-2.5797-5.5314-2.5797-3.0758 0-5.1842 2.0588-2.0836 2.0588-2.3068 5.5066z"/>
  <path d="m455.33 86.072v-36.364h4.4648v36.364z"/>
  <path d="m100.05 150.88v-36.364h7.243l8.6072 25.747q1.1906 3.5967 1.7363 5.3826 0.62012-1.9844 1.9348-5.8291l8.7064-25.301h6.474v36.364h-4.6385v-30.435l-10.567 30.435h-4.3408l-10.517-30.956v30.956z"/>
  <path d="m141.97 119.65v-5.1346h4.4648v5.1346zm0 31.229v-26.343h4.4648v26.343z"/>
  <path d="m162.98 146.89 0.64492 3.9439q-1.8852 0.39688-3.3734 0.39688-2.4309 0-3.7703-0.76895-1.3394-0.76894-1.8852-2.0092-0.5457-1.265-0.5457-5.2834v-15.156h-3.2742v-3.4727h3.2742v-6.5236l4.44-2.6789v9.2025h4.4896v3.4727h-4.4896v15.404q0 1.91 0.22324 2.4557 0.24805 0.54571 0.76895 0.86817 0.5457 0.32246 1.5379 0.32246 0.74414 0 1.9596-0.17363z"/>
  <path d="m175.23 150.88 13.965-36.364h5.1842l14.883 36.364h-5.4818l-4.2416-11.013h-15.205l-3.9936 11.013zm10.492-14.932h12.328l-3.7951-10.071q-1.7363-4.5889-2.5797-7.5406-0.69453 3.4975-1.9596 6.9453z"/>
  <path d="m212.54 150.88v-26.343h4.0184v3.7455q2.9022-4.3408 8.384-4.3408 2.3812 0 4.3656 0.86816 2.0092 0.84336 3.0014 2.2324 0.99218 1.3891 1.3891 3.299 0.24805 1.2402 0.24805 4.3408v16.197h-4.4648v-16.024q0-2.7285-0.5209-4.068-0.5209-1.3642-1.8604-2.158-1.3146-0.81856-3.1006-0.81856-2.8525 0-4.9361 1.8107-2.0588 1.8108-2.0588 6.8709v14.387z"/>
  <path d="m239.97 153.06 4.3408 0.64492q0.27285 2.0092 1.5131 2.927 1.6619 1.2402 4.5393 1.2402 3.1006 0 4.7873-1.2402 1.6867-1.2402 2.282-3.4727 0.34726-1.3643 0.32246-5.7299-2.927 3.4478-7.2926 3.4478-5.4322 0-8.4088-3.9191t-2.9766-9.401q0-3.7703 1.3643-6.9453 1.3643-3.1998 3.9439-4.9361 2.6045-1.7363 6.102-1.7363 4.6633 0 7.6894 3.7703v-3.175h4.1176v22.771q0 6.1516-1.265 8.7064-1.2402 2.5797-3.9688 4.068-2.7037 1.4883-6.6725 1.4883-4.7129 0-7.615-2.1332-2.9022-2.1084-2.8029-6.3748zm3.6959-15.825q0 5.1842 2.0588 7.5654t5.1594 2.3812q3.0758 0 5.1594-2.3564 2.0836-2.3812 2.0836-7.4414 0-4.8369-2.158-7.2926-2.1332-2.4557-5.1594-2.4557-2.9766 0-5.0602 2.4309-2.0836 2.406-2.0836 7.1686z"/>
  <path d="m286.31 150.88v-3.8695q-3.0758 4.4648-8.3592 4.4648-2.3316 0-4.3656-0.89297-2.0092-0.89296-3.0014-2.2324-0.96738-1.3643-1.3643-3.3238-0.27285-1.3146-0.27285-4.1672v-16.321h4.4648v14.61q0 3.4975 0.27285 4.7129 0.42168 1.7611 1.7859 2.7781 1.3642 0.99219 3.3734 0.99219t3.7703-1.017q1.7611-1.0418 2.4805-2.8029 0.74414-1.7859 0.74414-5.1594v-14.114h4.4648v26.343z"/>
  <path d="m297.2 150.88v-36.364h4.4648v36.364z"/>
  <path d="m325.77 147.63q-2.4805 2.1084-4.7873 2.9766-2.282 0.86816-4.9113 0.86816-4.3408 0-6.6725-2.1084-2.3316-2.1332-2.3316-5.4322 0-1.9348 0.86817-3.5223 0.89296-1.6123 2.3068-2.5797 1.4387-0.96738 3.2246-1.4635 1.3146-0.34727 3.9688-0.66973 5.4074-0.64492 7.9623-1.5379 0.0248-0.91777 0.0248-1.1658 0-2.7285-1.265-3.8447-1.7115-1.5131-5.085-1.5131-3.1502 0-4.6633 1.1162-1.4883 1.0914-2.2076 3.8943l-4.3656-0.59532q0.59531-2.8029 1.9596-4.5144 1.3642-1.7363 3.9439-2.6541 2.5797-0.94258 5.9779-0.94258 3.3734 0 5.4818 0.79375t3.1006 2.0092q0.99219 1.1906 1.3891 3.0262 0.22324 1.141 0.22324 4.1176v5.9531q0 6.226 0.27285 7.8879 0.29766 1.6371 1.141 3.1502h-4.6633q-0.69453-1.3891-0.89296-3.2494zm-0.37207-9.9715q-2.4309 0.99219-7.2926 1.6867-2.7533 0.39688-3.8943 0.89297-1.141 0.49609-1.7611 1.4635-0.62012 0.94257-0.62012 2.1084 0 1.7859 1.3394 2.9766 1.3643 1.1906 3.9688 1.1906 2.5797 0 4.5889-1.1162 2.0092-1.141 2.9518-3.1006 0.71934-1.5131 0.71934-4.4648z"/>
  <path d="m336.78 150.88v-26.343h4.0184v3.9936q1.5379-2.8029 2.8277-3.6959 1.3146-0.89297 2.8774-0.89297 2.2572 0 4.5889 1.4387l-1.5379 4.1424q-1.6371-0.96738-3.2742-0.96738-1.4635 0-2.6293 0.89297-1.1658 0.86816-1.6619 2.4309-0.74415 2.3812-0.74415 5.209v13.791z"/>
  <path d="m385.13 150.88v-3.8695q-3.0758 4.4648-8.3592 4.4648-2.3316 0-4.3656-0.89297-2.0092-0.89296-3.0014-2.2324-0.96738-1.3643-1.3643-3.3238-0.27285-1.3146-0.27285-4.1672v-16.321h4.4648v14.61q0 3.4975 0.27285 4.7129 0.42168 1.7611 1.7859 2.7781 1.3643 0.99219 3.3734 0.99219t3.7703-1.017q1.7611-1.0418 2.4805-2.8029 0.74414-1.7859 0.74414-5.1594v-14.114h4.4648v26.343z"/>
  <path d="m396.12 150.88v-26.343h4.0184v3.7455q2.9022-4.3408 8.384-4.3408 2.3812 0 4.3656 0.86816 2.0092 0.84336 3.0014 2.2324 0.99219 1.3891 1.3891 3.299 0.24805 1.2402 0.24805 4.3408v16.197h-4.4648v-16.024q0-2.7285-0.52089-4.068-0.5209-1.3642-1.8604-2.158-1.3146-0.81856-3.1006-0.81856-2.8525 0-4.9361 1.8107-2.0588 1.8108-2.0588 6.8709v14.387z"/>
  <path d="m441.46 150.88v-3.3238q-2.5053 3.9191-7.367 3.9191-3.1502 0-5.8043-1.7363-2.6293-1.7363-4.0928-4.8369-1.4387-3.1254-1.4387-7.1686 0-3.944 1.3146-7.1438 1.3146-3.2246 3.944-4.9361 2.6293-1.7115 5.8787-1.7115 2.3812 0 4.2416 1.017 1.8604 0.99219 3.0262 2.6045v-13.047h4.44v36.364zm-14.114-13.146q0 5.0602 2.1332 7.5654 2.1332 2.5053 5.0354 2.5053 2.927 0 4.9609-2.3812 2.0588-2.4061 2.0588-7.3174 0-5.4074-2.0836-7.9375-2.0836-2.5301-5.1346-2.5301-2.9766 0-4.9858 2.4309-1.9844 2.4309-1.9844 7.6646z"/>
  <path d="m467.26 150.88v-36.364h4.9361l19.1 28.55v-28.55h4.6137v36.364h-4.9361l-19.1-28.575v28.575z"/>
  <path d="m521.46 142.4 4.6137 0.5705q-1.0914 4.0432-4.0432 6.2756-2.9518 2.2324-7.5406 2.2324-5.7795 0-9.1777-3.5471-3.3734-3.5719-3.3734-9.9963 0-6.6476 3.423-10.319 3.423-3.6711 8.8801-3.6711 5.2834 0 8.632 3.5967 3.3486 3.5967 3.3486 10.12 0 0.39688-0.0248 1.1906h-19.645q0.24805 4.3408 2.4557 6.6476 2.2076 2.3068 5.5066 2.3068 2.4557 0 4.192-1.2898 1.7363-1.2898 2.7533-4.1176zm-14.66-7.2182h14.709q-0.29765-3.3238-1.6867-4.9857-2.1332-2.5797-5.5314-2.5797-3.0758 0-5.1842 2.0588-2.0836 2.0588-2.3068 5.5066z"/>
  <path d="m529.89 143.02 4.4152-0.69453q0.37207 2.6541 2.0588 4.068 1.7115 1.4139 4.7625 1.4139 3.0758 0 4.5641-1.2402 1.4883-1.265 1.4883-2.9518 0-1.5131-1.3146-2.3812-0.91777-0.59532-4.5641-1.5131-4.9113-1.2402-6.8213-2.1332-1.8852-0.91778-2.8773-2.5053-0.96739-1.6123-0.96739-3.5471 0-1.7611 0.79375-3.2494 0.81856-1.5131 2.2076-2.5053 1.0418-0.76895 2.8277-1.2898 1.8107-0.5457 3.8695-0.5457 3.1006 0 5.4322 0.89297 2.3564 0.89297 3.4727 2.4309 1.1162 1.5131 1.5379 4.068l-4.3656 0.59531q-0.29765-2.034-1.7363-3.175-1.4139-1.141-4.0184-1.141-3.0758 0-4.3904 1.017-1.3146 1.017-1.3146 2.3812 0 0.86816 0.5457 1.5627 0.54571 0.71934 1.7115 1.1906 0.66972 0.24804 3.9439 1.141 4.7377 1.265 6.598 2.0836 1.8852 0.79375 2.9518 2.3316 1.0666 1.5379 1.0666 3.8199 0 2.2324-1.3146 4.2168-1.2898 1.9596-3.7455 3.051-2.4557 1.0666-5.5562 1.0666-5.1346 0-7.8383-2.1332-2.6789-2.1332-3.423-6.3252z"/>
  <path d="m566.82 146.89 0.64492 3.9439q-1.8852 0.39688-3.3734 0.39688-2.4309 0-3.7703-0.76895-1.3394-0.76894-1.8852-2.0092-0.5457-1.265-0.5457-5.2834v-15.156h-3.2742v-3.4727h3.2742v-6.5236l4.44-2.6789v9.2025h4.4896v3.4727h-4.4896v15.404q0 1.91 0.22324 2.4557 0.24805 0.54571 0.76895 0.86817 0.5457 0.32246 1.5379 0.32246 0.74414 0 1.9596-0.17363z"/>
  <path d="m569.3 140.56 4.3408-0.59531q0.17363 4.1672 1.5627 5.7051 1.3891 1.5379 3.8447 1.5379 1.8107 0 3.1254-0.81856 1.3146-0.84336 1.8107-2.2572 0.4961-1.4387 0.4961-4.5641v-25.053h4.8121v24.78q0 4.5641-1.1162 7.0693-1.0914 2.5053-3.4975 3.8199-2.3812 1.3146-5.6059 1.3146-4.7873 0-7.3422-2.7533-2.5301-2.7533-2.4309-8.1856z"/>
  <path d="m595.52 139.2 4.5393-0.39687q0.32246 2.7285 1.4883 4.4896 1.1906 1.7363 3.6711 2.8277 2.4805 1.0666 5.5811 1.0666 2.7533 0 4.8617-0.81855 2.1084-0.81856 3.1254-2.2324 1.0418-1.4387 1.0418-3.1254 0-1.7115-0.99219-2.9766-0.99218-1.2898-3.2742-2.158-1.4635-0.5705-6.474-1.7611-5.0105-1.2154-7.0197-2.282-2.6045-1.3643-3.8943-3.3734-1.265-2.034-1.265-4.5392 0-2.7533 1.5627-5.1346 1.5627-2.406 4.5641-3.6463 3.0014-1.2402 6.6725-1.2402 4.0432 0 7.1189 1.3146 3.1006 1.2898 4.7625 3.8199 1.6619 2.5301 1.7859 5.7299l-4.6137 0.34727q-0.37207-3.4478-2.5301-5.209-2.1332-1.7611-6.3252-1.7611-4.3656 0-6.3748 1.6123-1.9844 1.5875-1.9844 3.8447 0 1.9596 1.4139 3.2246 1.3891 1.265 7.243 2.6045 5.8787 1.3146 8.0615 2.3068 3.175 1.4635 4.6881 3.7207 1.5131 2.2324 1.5131 5.1594 0 2.9022-1.6619 5.4818-1.6619 2.5549-4.7873 3.9936-3.1006 1.4139-6.9949 1.4139-4.9361 0-8.2848-1.4387-3.3238-1.4387-5.2338-4.316-1.8852-2.9022-1.9844-6.5484z"/>
 </g>
 <text transform="scale(.26458)" fill="#000000" font-family="sans-serif" font-size="40px" style="line-height:1.25;shape-inside:url(#rect28206);white-space:pre" xml:space="preserve"/>
</svg>
